<?xml version="1.0" encoding="UTF-8"?>
<svg id="Layer_1" xmlns="http://www.w3.org/2000/svg" version="1.1" viewBox="0 0 1200 1200">
  <!-- Generator: Adobe Illustrator 29.2.1, SVG Export Plug-In . SVG Version: 2.1.0 Build 116)  -->
  <defs>
    <style>
      .st0 {
        fill: #231f20;
      }

      .st1 {
        fill: #fff;
      }
    </style>
  </defs>
  <g>
    <path class="st1" d="M349.79,483.31v222.02h-52.78v-181.41h-14.7l-29.21,181.41h-81.63l-29.21-181.41h-15.19v181.41h-52.3v-222.02h109.62l20.16,153.82h15.49l20.15-153.82h109.62Z"/>
    <path class="st1" d="M468.17,705.33h-45.43l-.66-30.06h-13.48l-.66,30.06h-45.42l15.75-222.02h74.13l15.75,222.02ZM408.84,637.13h12.99l-3.71-113.21h-5.58l-3.71,113.21Z"/>
    <path class="st1" d="M575.84,523.92h-29.25v181.41h-43.42v-181.41h-29.25v-40.61h101.92v40.61Z"/>
    <path class="st1" d="M630.93,523.92v50.09h82.32v40.62h-82.32v50.09h82.32v40.62h-125.73v-222.02h125.73v40.61h-82.32Z"/>
    <path class="st1" d="M841.22,705.33h-45.03l-9.11-75.6h-11.12v75.6h-50.2v-222.02h60.12c29.78,0,48.32,11.69,48.32,52.42,0,.75,0,21.04-.02,21.77-.31,26.05-6.81,38.69-22.76,43.86v4.99h14.14l15.65,98.98ZM775.95,589.12h6.44c3.2,0,8.4-3.09,8.4-8.73v-47.74c0-5.65-5.2-8.73-8.41-8.73h-6.43v65.2Z"/>
    <path class="st1" d="M853.37,705.33v-222.02h50.08v222.02h-50.08Z"/>
    <path class="st1" d="M1021.23,705.33h-45.43l-.66-30.06h-13.47l-.66,30.06h-45.42l15.75-222.02h74.14l15.75,222.02ZM961.91,637.13h12.99l-3.71-113.21h-5.58l-3.71,113.21Z"/>
    <path class="st1" d="M1125.24,664.72v40.62h-91.86v-222.02h43.42v181.41h48.45Z"/>
    <polygon class="st1" points="903.77 903.53 296.72 903.53 296.72 754.28 347.44 754.28 347.44 852.8 853.04 852.8 853.04 754.28 903.77 754.28 903.77 903.53"/>
    <polygon class="st1" points="903.77 434.56 853.04 434.56 853.04 347.2 347.44 347.2 347.44 434.56 296.72 434.56 296.72 296.47 903.77 296.47 903.77 434.56"/>
  </g>
  <g>
    <path class="st0" d="M-877.69,483.31v222.02h-52.78v-181.41h-14.7l-29.21,181.41h-81.63l-29.21-181.41h-15.19v181.41h-52.3v-222.02h109.62l20.16,153.82h15.49l20.15-153.82h109.62Z"/>
    <path class="st0" d="M-759.31,705.33h-45.43l-.66-30.06h-13.48l-.66,30.06h-45.42l15.75-222.02h74.13l15.75,222.02ZM-818.63,637.13h12.99l-3.71-113.21h-5.58l-3.71,113.21Z"/>
    <path class="st0" d="M-651.63,523.92h-29.25v181.41h-43.42v-181.41h-29.25v-40.61h101.92v40.61Z"/>
    <path class="st0" d="M-596.54,523.92v50.09h82.32v40.62h-82.32v50.09h82.32v40.62h-125.73v-222.02h125.73v40.61h-82.32Z"/>
    <path class="st0" d="M-386.25,705.33h-45.03l-9.11-75.6h-11.12v75.6h-50.2v-222.02h60.12c29.78,0,48.32,11.69,48.32,52.42,0,.75,0,21.04-.02,21.77-.31,26.05-6.81,38.69-22.76,43.86v4.99h14.14l15.65,98.98ZM-451.52,589.12h6.44c3.2,0,8.4-3.09,8.4-8.73v-47.74c0-5.65-5.2-8.73-8.41-8.73h-6.43v65.2Z"/>
    <path class="st0" d="M-374.11,705.33v-222.02h50.08v222.02h-50.08Z"/>
    <path class="st0" d="M-206.24,705.33h-45.43l-.66-30.06h-13.47l-.66,30.06h-45.42l15.75-222.02h74.14l15.75,222.02ZM-265.57,637.13h12.99l-3.71-113.21h-5.58l-3.71,113.21Z"/>
    <path class="st0" d="M-102.23,664.72v40.62h-91.86v-222.02h43.42v181.41h48.45Z"/>
    <polygon class="st0" points="-323.7 903.53 -930.76 903.53 -930.76 754.28 -880.03 754.28 -880.03 852.8 -374.43 852.8 -374.43 754.28 -323.7 754.28 -323.7 903.53"/>
    <polygon class="st0" points="-323.7 434.56 -374.43 434.56 -374.43 347.2 -880.03 347.2 -880.03 434.56 -930.76 434.56 -930.76 296.47 -323.7 296.47 -323.7 434.56"/>
  </g>
</svg>